<svg width="1440" height="122" viewBox="0 0 1440 122" fill="none" xmlns="http://www.w3.org/2000/svg">
<rect width="1440" height="122" fill="#99A1C6"/>
<path d="M810 36C796.193 36 785 47.1927 785 61C785 74.8073 796.193 86 810 86C823.807 86 835 74.8073 835 61C835 47.1927 823.807 36 810 36ZM811.711 66.9245C810.107 66.8021 809.435 66.0078 808.18 65.2474C807.49 68.8698 806.646 72.3438 804.146 74.1589C803.372 68.6797 805.276 64.5703 806.161 60.2031C804.654 57.6641 806.341 52.5573 809.523 53.8125C813.438 55.3646 806.133 63.2526 811.036 64.2396C816.156 65.2656 818.247 55.3542 815.073 52.1354C810.484 47.4818 801.721 52.0286 802.799 58.6901C803.06 60.3177 804.745 60.8125 803.471 63.0599C800.536 62.4089 799.659 60.0938 799.773 57.0078C799.953 51.9557 804.313 48.4167 808.682 47.9297C814.211 47.3151 819.398 49.9583 820.117 55.1615C820.922 61.0312 817.62 67.3828 811.711 66.9245Z" fill="white"/>
<path d="M720 36C706.193 36 695 47.1927 695 61C695 74.8073 706.193 86 720 86C733.807 86 745 74.8073 745 61C745 47.1927 733.807 36 720 36ZM713.88 71.362H708.818V55.0703H713.88V71.362ZM711.318 53.0703C709.719 53.0703 708.685 51.9375 708.685 50.5365C708.685 49.1068 709.75 48.0078 711.383 48.0078C713.016 48.0078 714.016 49.1068 714.047 50.5365C714.047 51.9375 713.016 53.0703 711.318 53.0703ZM732.37 71.362H727.307V62.3333C727.307 60.2318 726.573 58.8047 724.742 58.8047C723.344 58.8047 722.513 59.7708 722.146 60.7005C722.01 61.0312 721.977 61.5 721.977 61.9661V71.3594H716.911V60.2656C716.911 58.2318 716.846 56.5312 716.779 55.0677H721.177L721.409 57.3307H721.51C722.177 56.2682 723.81 54.7005 726.542 54.7005C729.872 54.7005 732.37 56.9323 732.37 61.7292V71.362Z" fill="white"/>
<path d="M630 36C616.193 36 605 47.1927 605 61C605 74.8073 616.193 86 630 86C643.807 86 655 74.8073 655 61C655 47.1927 643.807 36 630 36ZM635.922 53.276H632.164C631.719 53.276 631.224 53.862 631.224 54.6406V57.3542H635.924L635.214 61.224H631.224V72.8411H626.789V61.224H622.766V57.3542H626.789V55.0781C626.789 51.8125 629.055 49.1589 632.164 49.1589H635.922V53.276Z" fill="white"/>
</svg>
