<svg width="150" height="48" viewBox="0 0 150 48" fill="none" xmlns="http://www.w3.org/2000/svg">
<path d="M11.1397 38.8779C10.8641 38.8417 10.6018 38.7338 10.3763 38.5639L1.67865 29.7716C1.33531 29.4942 1.02785 29.1712 0.763897 28.8107C0.550021 28.5726 0.369914 28.3035 0.229299 28.0115C0.0732202 27.6893 -0.0053503 27.3319 0.00028923 26.9706V25.691C-0.00540919 25.3301 0.0731713 24.9732 0.229299 24.6516C0.458377 24.3376 0.611179 24.011 0.763897 23.8508L1.67865 22.8915L10.2999 13.8511C10.5238 13.6885 10.7911 13.6045 11.0635 13.6109C11.2046 13.6026 11.3457 13.6263 11.4773 13.6805C11.6088 13.7347 11.7275 13.8181 11.8254 13.9249C12.0016 14.153 12.1064 14.4327 12.125 14.7256V16.5657C12.125 16.7228 12.0486 16.806 12.0486 16.8798C12.0292 16.9976 11.9772 17.1068 11.8989 17.1938C11.8603 17.281 11.8099 17.3619 11.7492 17.434C11.7492 17.5141 11.6727 17.591 11.5215 17.748L11.2925 17.9882C11.1706 18.0668 11.0681 18.1744 10.9931 18.3022C10.8434 18.4592 10.6935 18.5425 10.6935 18.6163L3.9799 25.8966C3.83017 26.0536 3.68052 26.2107 3.68052 26.3771C3.68634 26.4775 3.71702 26.5747 3.76953 26.6589C3.82204 26.7432 3.89449 26.8116 3.9799 26.8575L10.6935 33.8176C10.7787 33.916 10.8803 33.9974 10.9931 34.0578C11.1428 34.2148 11.2221 34.2965 11.2925 34.2965L11.5215 34.5367L11.7492 34.7769C11.8256 34.857 11.8255 34.9339 11.8989 35.0171C11.9723 35.1004 11.9752 35.2574 12.0486 35.3312C12.0486 35.4112 12.125 35.5714 12.125 35.6452V37.6768C12.1331 37.8248 12.1105 37.9729 12.0588 38.1109C12.0071 38.2488 11.9275 38.3734 11.8254 38.476C11.7533 38.5988 11.6525 38.7002 11.5325 38.7706C11.4124 38.8409 11.2772 38.8779 11.1397 38.8779Z" fill="#A35199"/>
<path d="M19.532 47.9984C19.3822 47.9984 19.2324 47.7582 19.2324 47.3578V47.1192L26.2515 0.959309C26.4012 0.320293 26.551 0 26.786 0H30.9064C31.134 0 31.2059 0.240218 31.2059 0.640585V0.880804L24.1869 47.0407C24.0372 47.6797 23.8873 48 23.6538 48L19.532 47.9984Z" fill="#A35199"/>
<path d="M37.8432 42.6382C37.7306 42.6491 37.6172 42.6332 37.5114 42.5916C37.4056 42.55 37.3101 42.4838 37.2322 42.398C37.0824 42.241 37.0825 41.9176 37.0825 41.4387V6.63509C37.0574 6.30732 37.1088 5.97809 37.2322 5.67578C37.3101 5.59 37.4056 5.52382 37.5114 5.48222C37.6172 5.44062 37.7306 5.42467 37.8432 5.43556H42.1852C42.2977 5.42467 42.4109 5.44062 42.5167 5.48222C42.6225 5.52382 42.7181 5.59 42.796 5.67578C42.9457 5.83279 42.9457 6.15622 42.9457 6.63509V20.3967C42.9257 20.5354 42.9528 20.6771 43.0221 20.7971C43.0984 20.9541 43.1717 20.9541 43.2511 20.9541H52.1777C52.2541 20.9541 52.3274 20.874 52.4053 20.7971C52.4816 20.6401 52.5549 20.5569 52.5549 20.3967V6.63509C52.5165 6.29668 52.5982 5.95527 52.7841 5.67578C52.8621 5.59 52.9574 5.52382 53.0632 5.48222C53.169 5.44062 53.2824 5.42467 53.3949 5.43556H57.8192C57.9204 5.4247 58.0227 5.44105 58.1162 5.48308C58.2097 5.52511 58.2915 5.59143 58.3538 5.67578C58.5036 5.83279 58.5035 6.15622 58.5035 6.63509V41.445C58.5285 41.7728 58.4772 42.102 58.3538 42.4043C58.2866 42.4825 58.2041 42.5445 58.1118 42.586C58.0196 42.6275 57.9196 42.6475 57.8192 42.6445H53.3949C53.2627 42.6655 53.1276 42.6371 53.0131 42.5644L52.7138 42.2504C52.6123 41.9976 52.5614 41.7256 52.5641 41.4513V25.5968C52.5641 25.1964 52.4876 25.0378 52.2645 25.0378H43.2617C43.0326 25.0378 42.9621 25.1948 42.9621 25.5968V41.445C43.0005 41.7834 42.9191 42.1248 42.7331 42.4043C42.6552 42.4901 42.5597 42.5563 42.4539 42.5979C42.3481 42.6395 42.2348 42.6554 42.1223 42.6445L37.8432 42.6382Z" fill="#A35199"/>
<path d="M69.5817 42.6382C69.4805 42.6491 69.3782 42.6327 69.2847 42.5907C69.1912 42.5487 69.1094 42.4824 69.0471 42.398C68.8612 42.1185 68.7797 41.7771 68.8181 41.4387V10.2353C68.8181 9.83645 68.7417 9.59624 68.5186 9.59624H62.8741C62.7973 9.59624 62.7208 9.51617 62.6449 9.35602C62.5725 9.12386 62.5464 8.87852 62.5685 8.63535V6.55502C62.5394 6.25304 62.5914 5.94853 62.7184 5.67579C62.7962 5.59022 62.8912 5.52417 62.9968 5.48258C63.1023 5.44098 63.2155 5.42491 63.3277 5.43557H80.1896C80.2906 5.42497 80.3925 5.44146 80.4857 5.48347C80.5789 5.52549 80.6604 5.59167 80.7226 5.67579C80.8723 5.83279 80.8725 6.15623 80.8725 6.55502V8.63065C80.8948 8.90698 80.8428 9.18436 80.7226 9.43138C80.5413 9.55228 80.3273 9.60745 80.1132 9.58839H75.0017C74.7727 9.58839 74.7022 9.8286 74.7022 10.2274V41.445C74.7378 41.8085 74.6573 42.1741 74.4732 42.4844C74.3952 42.5702 74.2999 42.6363 74.1941 42.6779C74.0883 42.7195 73.9749 42.7355 73.8624 42.7246H69.5907L69.5817 42.6382Z" fill="#A35199"/>
<path d="M85.2218 42.6382C84.7637 42.6382 84.5346 42.2379 84.5346 41.3586V41.2016L85.9076 6.79838C85.9076 5.83907 86.207 5.35863 86.6712 5.35863H91.401C91.6734 5.3522 91.9407 5.43628 92.1647 5.59885C92.2987 5.71816 92.4083 5.86464 92.4871 6.02948C92.5658 6.19433 92.612 6.37415 92.6229 6.55816L97.658 31.0402C97.6666 31.0998 97.6934 31.1548 97.7344 31.1972H97.884C97.9604 31.1972 97.9604 31.1171 97.9604 31.0402L102.996 6.71831C103.145 5.91914 103.53 5.4387 104.139 5.4387H108.946C109.404 5.4387 109.633 5.99921 109.633 6.87845L111.006 41.2817V41.4387C111.006 42.2379 110.777 42.7183 110.244 42.7183H106.963C106.505 42.7183 106.2 42.2379 106.2 41.3586L105.285 14.6361C105.285 14.5561 105.285 14.4791 105.208 14.4791C105.132 14.4791 105.132 14.4791 105.059 14.5592L99.6419 41.445C99.4922 42.2442 99.1073 42.7246 98.6491 42.7246H96.7417C96.2851 42.7246 95.9033 42.3242 95.7506 41.445L90.4863 14.7225C90.4863 14.6424 90.4098 14.5655 90.3364 14.6424V14.7994L89.3453 41.2817C89.3453 42.241 89.1162 42.6414 88.6581 42.6414L85.2218 42.6382Z" fill="#A35199"/>
<path d="M118.181 42.6382C118.08 42.6497 117.977 42.6337 117.884 42.5916C117.791 42.5495 117.709 42.4828 117.648 42.398C117.498 42.241 117.498 41.9176 117.498 41.4387V6.63509C117.473 6.30731 117.524 5.97805 117.648 5.67578C117.714 5.59741 117.797 5.53529 117.889 5.4938C117.981 5.4523 118.08 5.43242 118.181 5.43556H122.606C122.707 5.42497 122.809 5.44145 122.903 5.48347C122.996 5.52549 123.077 5.59166 123.14 5.67578C123.289 5.83279 123.289 6.15622 123.289 6.63509V37.9987C123.289 38.3975 123.439 38.5576 123.671 38.5576H131.457C131.646 38.5488 131.833 38.6039 131.99 38.7146C132.139 38.8716 132.139 39.115 132.139 39.5154V41.602C132.149 41.9028 132.098 42.2024 131.99 42.4812C131.918 42.5476 131.833 42.5962 131.74 42.6234C131.648 42.6505 131.551 42.6556 131.457 42.6382H118.181Z" fill="#A35199"/>
<path d="M139.009 38.8779C138.878 38.8933 138.746 38.8723 138.626 38.8172C138.506 38.7621 138.401 38.6747 138.323 38.5639C138.147 38.3362 138.043 38.0571 138.024 37.7647V35.9984C138.014 35.8876 138.041 35.7767 138.1 35.6844C138.1 35.6043 138.176 35.5274 138.176 35.4442C138.205 35.4127 138.227 35.3747 138.24 35.3332C138.254 35.2916 138.258 35.2474 138.253 35.204C138.253 35.1239 138.329 35.047 138.402 34.9637C138.476 34.8805 138.552 34.8067 138.552 34.7235C138.552 34.6403 138.628 34.6435 138.702 34.4833L138.931 34.2447C139.006 34.2447 139.081 34.1646 139.159 34.0044C139.311 33.9238 139.388 33.8438 139.388 33.7642L146.101 26.5639C146.168 26.5039 146.223 26.4304 146.262 26.3479C146.301 26.2654 146.325 26.1755 146.33 26.0835C146.324 25.9831 146.294 25.886 146.241 25.8018C146.189 25.7175 146.116 25.6491 146.031 25.603L139.392 18.6429C139.277 18.5231 139.149 18.4177 139.01 18.3289C138.861 18.1719 138.711 18.0887 138.711 18.0149L138.482 17.7747C138.332 17.6177 138.253 17.536 138.253 17.4607C138.253 17.3853 138.176 17.3037 138.103 17.1467C138.03 16.9897 138.027 16.9064 137.953 16.7463V14.5561C137.948 14.2709 138.048 13.9946 138.234 13.7857C138.419 13.5768 138.674 13.4516 138.946 13.4366C139.227 13.4472 139.496 13.558 139.708 13.7506L148.406 22.6309L149.322 23.5902C149.506 23.8047 149.658 24.0478 149.771 24.3109C149.919 24.6356 149.997 24.9904 150 25.3502V27.0302C150 27.1103 149.924 27.2704 149.924 27.3442C149.872 27.4397 149.845 27.5482 149.847 27.6582C149.847 27.7383 149.771 27.8153 149.698 27.9723C149.659 28.0593 149.608 28.1402 149.548 28.2125C149.486 28.3281 149.409 28.4338 149.319 28.5265L149.09 28.7651L148.79 29.0791C148.641 29.2362 148.491 29.3194 148.491 29.3932L139.843 38.4776C139.62 38.7125 139.324 38.8548 139.009 38.8779Z" fill="#A35199"/>
</svg>
